<svg xmlns="http://www.w3.org/2000/svg" width="105.056" height="104.383" viewBox="0 0 105.056 104.383"><defs><style>.a{fill:#da9367;}.b{fill:#edb88e;}.c{fill:#f9dbaf;}.d{fill:#fcea42;}.e{fill:#fdc741;}.f{fill:#fffa48;}.g{fill:#48cae4;}.h{fill:#00b4d8;}.i{fill:#ef5350;}.j{fill:#e53935;}.k{fill:#323232;}</style></defs><g transform="translate(-1.999 -2.384)"><g transform="translate(3.751 4.14)"><path class="a" d="M58.458,40.8,41.474,62.426l-15.758-7L51.61,34.091a4.783,4.783,0,0,1,6.867.823l.047.063a4.782,4.782,0,0,1-.067,5.824Z" transform="translate(14.058 18.85)"/><path class="b" d="M67.714,39.967,50.723,61.593,29.712,59.842,60.857,33.368a4.782,4.782,0,0,1,6.857,6.6Z" transform="translate(17.059 18.272)"/><path class="a" d="M68.738,36.552a4.738,4.738,0,0,1-1.016,2.959l-17,21.624L29.71,59.384,46.4,45.2l.77.3a6.977,6.977,0,0,0,7.3-1.313L66.952,32.84a4.172,4.172,0,0,1,.823.84,4.764,4.764,0,0,1,.963,2.872Z" transform="translate(17.057 18.73)"/><path class="c" d="M76.714,37.967,59.723,59.593,38.712,57.842,69.857,31.368a4.782,4.782,0,0,1,6.857,6.6Z" transform="translate(23.817 16.77)"/><path class="b" d="M77.738,34.537A4.738,4.738,0,0,1,76.722,37.5l-17,21.624L38.71,57.369l6.9-5.866h.018a17.525,17.525,0,0,0,11.661-4.325L76,30.86a4.222,4.222,0,0,1,.77.805A4.764,4.764,0,0,1,77.738,34.537Z" transform="translate(23.815 17.243)"/><path class="d" d="M44.26,16h5.253A17.509,17.509,0,0,1,67.022,33.509V63.275a3.5,3.5,0,0,1-3.5,3.5H28.5a3.5,3.5,0,0,1-3.5-3.5V35.26A19.26,19.26,0,0,1,44.26,16Z" transform="translate(13.52 6.085)"/><path class="e" d="M67.022,49.267V63.275a3.512,3.512,0,0,1-3.5,3.5H28.5a3.512,3.512,0,0,1-3.5-3.5V35.26A19.25,19.25,0,0,1,44.26,16h5.253a17.281,17.281,0,0,1,5.148.77A3.621,3.621,0,0,1,51.071,19.5H39.935A6.158,6.158,0,0,0,34.1,23.7a6.508,6.508,0,0,0-.333,2.154,24.513,24.513,0,0,0,24.5,23.41Z" transform="translate(13.52 6.085)"/><circle class="f" cx="14.007" cy="14.007" r="14.007" transform="translate(45.524 37.843)"/><path class="g" d="M48.509,19H34.5a3.5,3.5,0,1,1,0-7H48.509a3.5,3.5,0,1,1,0,7Z" transform="translate(18.026 3.081)"/><path class="d" d="M55.264,6.211,51.119,4.138a5.582,5.582,0,0,0-5.538.322,5.58,5.58,0,0,1-5.575.294l-1.494-.76a5.58,5.58,0,0,0-5.027-.019L29,6.211l.147.147A26.064,26.064,0,0,1,36,18.468H50.011a12.644,12.644,0,0,1,1.8-6.5Z" transform="translate(16.524 -3.387)"/><path class="h" d="M52.011,15.5a3.528,3.528,0,0,1-3.5,3.5H34.5a3.5,3.5,0,0,1,0-7A3.512,3.512,0,0,0,38,15.5Z" transform="translate(18.026 3.081)"/><path class="e" d="M50.571,14.518a12.4,12.4,0,0,0-.56,3.677H36A26,26,0,0,0,29.14,6.079L29,5.939,33.36,3.75A23.812,23.812,0,0,0,50.571,14.518Z" transform="translate(16.524 -3.114)"/><path class="d" d="M56.573,40.835A14.007,14.007,0,1,1,33.3,27.23a24.5,24.5,0,0,0,21.957,13.6Z" transform="translate(16.527 14.517)"/><path class="i" d="M83.456,5v7h9.056L71.5,33.015H37.932a3.5,3.5,0,0,0-2.231.8L3.115,60.763l4.463,5.4L39.193,40.018H72.95a3.5,3.5,0,0,0,2.475-1.026L97.463,16.955v9.056h7V5Z" transform="translate(-2.914 -2.176)"/><path class="j" d="M4.446,63.582l2.133,2.579L38.193,40.018H71.951a3.5,3.5,0,0,0,2.475-1.026L96.464,16.955v9.056h7V5L76.2,32.264a14.522,14.522,0,0,1-10.267,4.253H42.185a14.522,14.522,0,0,0-9.294,3.363Z" transform="translate(-1.914 -2.176)"/><path class="c" d="M102.841,37.31a4.706,4.706,0,0,0-6.147.018l-17.157,14.3H61.152A4.377,4.377,0,0,0,65.508,46.8,4.552,4.552,0,0,0,60.9,42.871H49.133a29.363,29.363,0,0,0-14.266,3.255L31.2,48.068A60.914,60.914,0,0,0,3,79.64H37.514l.832-2.082a12.256,12.256,0,0,1,9.795-7.6l25.469-3.327A22.762,22.762,0,0,0,86.76,60.151L103,43.922a4.565,4.565,0,0,0-.163-6.611Z" transform="translate(-3 21.236)"/><g transform="translate(0 58.153)"><path class="b" d="M102.995,43.6,86.764,59.835a22.762,22.762,0,0,1-13.149,6.478L48.139,69.64a12.265,12.265,0,0,0-9.788,7.6l-.84,2.084H3a60.554,60.554,0,0,1,16.3-23.3A24.459,24.459,0,0,0,39.769,67.066h.455a12.2,12.2,0,0,1,6.163-2.679L71.864,61.06a22.762,22.762,0,0,0,13.149-6.478l16.231-16.231a4.638,4.638,0,0,0,1.1-1.751,5.275,5.275,0,0,1,.49.385,4.552,4.552,0,0,1,.158,6.618Z" transform="translate(-3 -36.6)"/><path class="b" d="M43.706,40.12a4.1,4.1,0,0,1,.053.665,4.363,4.363,0,0,1-4.377,4.377H30.994v.051A3.5,3.5,0,0,0,28,48.664H42.375a4.377,4.377,0,0,0,1.331-8.544Z" transform="translate(15.773 -33.957)"/></g></g><g transform="translate(1.999 2.384)"><path class="k" d="M105.749,45.661a6.534,6.534,0,0,0-9.455-1.051l-6,5.086a4.126,4.126,0,0,0-.308-.525,6.44,6.44,0,0,0-3.947-2.486V37.393a19.234,19.234,0,0,0-1.882-8.2L96.55,16.805v4.829a1.751,1.751,0,1,0,3.5,0V12.579a1.751,1.751,0,0,0-2.989-1.238L75.026,33.378a1.767,1.767,0,0,1-1.238.513H40.03a1.751,1.751,0,0,0-1.117.4L8.654,59.32l-2.236-2.7,10.049-8.308a1.751,1.751,0,0,0-2.234-2.689l-11.4,9.415A1.751,1.751,0,0,0,2.6,57.5l4.463,5.4a1.74,1.74,0,0,0,1.182.627h.166a1.751,1.751,0,0,0,1.114-.4L40.661,37.393H53.4a15.671,15.671,0,0,0-1.812,22.762h-1.7a38.034,38.034,0,0,0-5.866.434V42.646a1.751,1.751,0,0,0-3.5,0v18.7A28.666,28.666,0,0,0,34.8,63.622l-3.654,1.942A62.648,62.648,0,0,0,2.121,98.034a1.752,1.752,0,1,0,3.26,1.282,59.136,59.136,0,0,1,27.4-30.662l3.656-1.944a27.759,27.759,0,0,1,13.452-3.054H61.654A2.789,2.789,0,0,1,64.517,66,2.626,2.626,0,0,1,61.9,68.909H47.017a1.751,1.751,0,0,0,0,3.5H80.284A1.751,1.751,0,0,0,81.406,72L98.555,57.7a3,3,0,0,1,3.852-.081,2.836,2.836,0,0,1,.938,2.05,2.761,2.761,0,0,1-.833,2.042L86.281,77.946a21.113,21.113,0,0,1-12.143,5.983l-7.722,1.016a1.752,1.752,0,1,0,.459,3.474L74.594,87.4a24.618,24.618,0,0,0,14.161-6.976L104.981,64.2a6.3,6.3,0,0,0-.208-9.152c-.046-.042-.1-.07-.147-.112l1.035-1.317a6.545,6.545,0,0,0,.089-7.958Zm-18.56,5.6a3.029,3.029,0,0,1,.4.742l-1.541,1.306V50.35a2.977,2.977,0,0,1,1.143.912ZM79.65,68.909H67.439A6.179,6.179,0,0,0,68,65.654a5.561,5.561,0,0,0-.2-.966,15.6,15.6,0,0,0,6.706-4.006,1.751,1.751,0,0,0-2.5-2.451,12.173,12.173,0,0,1-6.27,3.386,6.319,6.319,0,0,0-.946-.634,1.7,1.7,0,0,0,.235-.828V58.082A5.241,5.241,0,0,0,63.283,47.9a1.751,1.751,0,1,1,1.751-1.751,1.751,1.751,0,0,0,3.5,0,5.253,5.253,0,0,0-3.5-4.931V39.144a1.751,1.751,0,1,0-3.5,0v2.073A5.24,5.24,0,0,0,63.283,51.4a1.751,1.751,0,1,1-1.751,1.751,1.751,1.751,0,0,0-3.5,0,5.253,5.253,0,0,0,3.5,4.931v2.073H56.979A12.246,12.246,0,1,1,75.1,52.925a1.751,1.751,0,1,0,3.372.944,15.746,15.746,0,0,0-5.3-16.476h.623A5.214,5.214,0,0,0,77.5,35.854l4.006-4.006a15.711,15.711,0,0,1,1.035,5.545l.009,29.1Zm16.671-13.9L86.045,63.578V57.908L98.558,47.271a3.033,3.033,0,0,1,4.348,4.183l-1.628,2.064A6.7,6.7,0,0,0,96.321,55.011Z" transform="translate(-1.999 3.957)"/><path class="k" d="M44.682,53.675,33.862,55.1a14.018,14.018,0,0,0-11.183,8.678l-.842,2.085a1.751,1.751,0,0,0,.97,2.276,1.725,1.725,0,0,0,.655.13,1.751,1.751,0,0,0,1.625-1.1l.842-2.089a10.505,10.505,0,0,1,8.389-6.512l10.821-1.418a1.752,1.752,0,0,0-.455-3.474Z" transform="translate(12.802 36.119)"/><path class="k" d="M98.015,5.213H77a1.751,1.751,0,0,0-1.751,1.751v7A1.751,1.751,0,0,0,77,15.719h4.829L69.966,27.587a19.33,19.33,0,0,0-2.915-1.564,5.2,5.2,0,0,0-2.208-8.2,10.884,10.884,0,0,1,1.459-4.2L69.75,7.866A1.751,1.751,0,0,0,69.032,5.4L64.888,3.326a7.354,7.354,0,0,0-7.277.413,3.835,3.835,0,0,1-3.824.2l-1.5-.762a7.354,7.354,0,0,0-6.6-.023L41.2,5.4a1.751,1.751,0,0,0-.452,2.8l.145.145A24.338,24.338,0,0,1,46.8,17.955a5.226,5.226,0,0,0-1.459,8.529,20.943,20.943,0,0,0-8.109,6.745H31.48a5.265,5.265,0,0,0-3.348,1.2L12.341,47.489a1.752,1.752,0,0,0,2.234,2.7l15.79-13.057a1.763,1.763,0,0,1,1.115-.4H65.049a1.751,1.751,0,0,0,1.238-.513L87.3,15.206a1.751,1.751,0,0,0-1.238-2.989h-7.3v-3.5H96.264v19.26a1.751,1.751,0,0,0,3.5,0V6.964a1.751,1.751,0,0,0-1.751-1.751ZM47.254,6.287A3.836,3.836,0,0,1,50.7,6.3l1.5.762a7.354,7.354,0,0,0,7.324-.389,3.842,3.842,0,0,1,3.8-.215l2.451,1.226L63.3,11.814a14.408,14.408,0,0,0-1.945,5.655H58.422l.982-2.949a1.751,1.751,0,0,0-3.2-1.4,8.1,8.1,0,0,0-2.933-2.478,1.752,1.752,0,0,0-1.565,3.134,4.531,4.531,0,0,1,2.476,3.693H50.322a27.857,27.857,0,0,0-5.461-9.98ZM48.99,24.473a1.751,1.751,0,1,1,0-3.5H63a1.751,1.751,0,0,1,0,3.5Zm15.335,8.755H41.8a17.406,17.406,0,0,1,12.447-5.253H59.5a15.555,15.555,0,0,1,7.919,2.162Z" transform="translate(5.29 -2.384)"/><path class="k" d="M4.362,38.332a1.751,1.751,0,0,0,1.388.683,1.723,1.723,0,0,0,1.065-.364L29.108,21.506h8.159a1.751,1.751,0,0,0,1.238-.513l7-7a1.751,1.751,0,1,0-2.476-2.476L36.542,18h-8.03a1.739,1.739,0,0,0-1.066.364L4.685,35.877a1.751,1.751,0,0,0-.322,2.455Z" transform="translate(-0.497 4.086)"/><path class="k" d="M60.392,21.013l-7.879,7.879a1.751,1.751,0,1,0,2.476,2.476l7.879-7.879a1.751,1.751,0,1,0-2.476-2.476Z" transform="translate(35.547 11.219)"/><path class="k" d="M4.751,26.007a1.74,1.74,0,0,0,1.051-.35L19.809,15.152a1.751,1.751,0,1,0-2.1-2.8L3.7,22.856a1.751,1.751,0,0,0,1.051,3.152Z" transform="translate(-1.248 4.836)"/><path class="k" d="M11.826,50.391,27.585,38.135a1.752,1.752,0,1,0-2.15-2.766L9.676,47.625a1.752,1.752,0,0,0,2.15,2.766Z" transform="translate(3.257 22.107)"/></g></g></svg>